HIERARCHY
ROOT Hips
{
	OFFSET 0.000000 0.000000 0.000000
	CHANNELS 6 Xposition Yposition Zposition Xrotation Yrotation Zrotation
	JOINT LeftUpLeg_virtual
	{
		OFFSET 0.000000 0.000000 0.000000
		CHANNELS 3 Xrotation Yrotation Zrotation
		JOINT LeftUpLeg
		{
			OFFSET 13.026900 -6.336304 -1.092800
			CHANNELS 3 Xrotation Yrotation Zrotation
			JOINT LeftLeg
			{
				OFFSET 0.524474 -46.096886 9.782700
				CHANNELS 3 Xrotation Yrotation Zrotation
				JOINT LeftFoot
				{
					OFFSET -0.524474 -53.427422 -12.948200
					CHANNELS 3 Xrotation Yrotation Zrotation
					JOINT LeftToeBase
					{
						OFFSET 0.192200 -14.009700 16.364100
						CHANNELS 3 Xrotation Yrotation Zrotation
						JOINT LeftToe_End
						{
							OFFSET -1.784700 -0.561700 9.474800
							CHANNELS 3 Xrotation Yrotation Zrotation
							End Site
							{
								OFFSET 0 0 0
							}
						}
					}
				}
			}
		}
	}
	JOINT RightUpLeg_virtual
	{
		OFFSET 0.000000 0.000000 0.000000
		CHANNELS 3 Xrotation Yrotation Zrotation
		JOINT RightUpLeg
		{
			OFFSET -12.883000 -6.336304 -1.092800
			CHANNELS 3 Xrotation Yrotation Zrotation
			JOINT RightLeg
			{
				OFFSET -0.524587 -46.096825 9.782800
				CHANNELS 3 Xrotation Yrotation Zrotation
				JOINT RightFoot
				{
					OFFSET 0.524587 -53.427383 -12.948300
					CHANNELS 3 Xrotation Yrotation Zrotation
					JOINT RightToeBase
					{
						OFFSET -0.192200 -14.009700 16.364100
						CHANNELS 3 Xrotation Yrotation Zrotation
						JOINT RightToe_End
						{
							OFFSET 1.784700 -0.561700 9.474800
							CHANNELS 3 Xrotation Yrotation Zrotation
							End Site
							{
								OFFSET 0 0 0
							}
						}
					}
				}
			}
		}
	}
	JOINT Spine_virtual
	{
		OFFSET 0.000000 0.000000 0.000000
		CHANNELS 3 Xrotation Yrotation Zrotation
		JOINT Spine
		{
			OFFSET 0.072000 7.257294 -0.789700
			CHANNELS 3 Xrotation Yrotation Zrotation
			JOINT Spine1
			{
				OFFSET 0.000000 12.508769 -0.658067
				CHANNELS 3 Xrotation Yrotation Zrotation
				JOINT Spine1_split
				{
					OFFSET 0.000000 12.508769 -0.658067
					CHANNELS 3 Xrotation Yrotation Zrotation
					JOINT Spine2
					{
						OFFSET 0.000000 12.508769 -0.658067
						CHANNELS 3 Xrotation Yrotation Zrotation
						JOINT Neck_virtual
						{
							OFFSET 0.000000 0.000000 0.000000
							CHANNELS 3 Xrotation Yrotation Zrotation
							JOINT Neck
							{
								OFFSET 0.000000 14.033295 7.520400
								CHANNELS 3 Xrotation Yrotation Zrotation
								JOINT Head
								{
									OFFSET 0.000000 8.198502 5.703100
									CHANNELS 3 Xrotation Yrotation Zrotation
									JOINT HeadTop_End
									{
										OFFSET 0.000000 17.760803 13.332701
										CHANNELS 3 Xrotation Yrotation Zrotation
										End Site
										{
											OFFSET 0 0 0
										}
									}
								}
							}
						}
						JOINT LeftShoulder_virtual
						{
							OFFSET 0.000000 0.000000 0.000000
							CHANNELS 3 Xrotation Yrotation Zrotation
							JOINT LeftShoulder
							{
								OFFSET 6.292450 5.785301 -0.669000
								CHANNELS 3 Xrotation Yrotation Zrotation
								JOINT LeftShoulder_split
								{
									OFFSET 6.292450 5.785301 -0.669000
									CHANNELS 3 Xrotation Yrotation Zrotation
									JOINT LeftArm
									{
										OFFSET 13.907140 -6.093903 1.965100
										CHANNELS 3 Xrotation Yrotation Zrotation
										JOINT LeftForeArm
										{
											OFFSET 34.140198 0.000000 0.000000
											CHANNELS 3 Xrotation Yrotation Zrotation
											JOINT LeftHand
											{
												OFFSET 40.960209 0.000000 0.000000
												CHANNELS 3 Xrotation Yrotation Zrotation
												End Site
												{
													OFFSET 0 0 0
												}
											}
										}
									}
								}
							}
						}
						JOINT RightShoulder_virtual
						{
							OFFSET 0.000000 0.000000 0.000000
							CHANNELS 3 Xrotation Yrotation Zrotation
							JOINT RightShoulder
							{
								OFFSET -6.292450 5.785301 -0.669000
								CHANNELS 3 Xrotation Yrotation Zrotation
								JOINT RightShoulder_split
								{
									OFFSET -6.292450 5.785301 -0.669000
									CHANNELS 3 Xrotation Yrotation Zrotation
									JOINT RightArm
									{
										OFFSET -13.907140 -6.093903 1.965100
										CHANNELS 3 Xrotation Yrotation Zrotation
										JOINT RightForeArm
										{
											OFFSET -34.140198 0.000000 0.000000
											CHANNELS 3 Xrotation Yrotation Zrotation
											JOINT RightHand
											{
												OFFSET -40.960209 0.000000 0.000000
												CHANNELS 3 Xrotation Yrotation Zrotation
												End Site
												{
													OFFSET 0 0 0
												}
											}
										}
									}
								}
							}
						}
					}
				}
			}
		}
	}
}
MOTION
Frames: 10
Frame Time: 0.03333333
0.870384 113.453697 -0.914742 0.000000 0.000000 0.000000 5.320733 -28.979215 1.583454 -17.562827 17.423925 11.149077 19.675924 13.653157 -1.365289 -1.639455 -4.159859 -5.061570 -0.404807 0.171054 -0.035790 0.000000 0.000000 0.000000 8.860334 -28.563788 2.405638 -5.205380 4.592390 -8.847746 11.191638 11.590541 2.069231 -8.358177 -3.621335 5.782243 0.510792 0.623756 -0.068205 0.000000 0.000000 0.000000 4.397406 -30.312045 -0.788969 7.295540 1.681746 -2.042811 0.258098 0.904190 2.775074 2.536654 2.024849 -0.214245 0.000000 0.000000 0.000000 0.827918 0.669134 4.100969 -2.364822 23.757346 -9.669369 -1.893129 10.821958 6.371543 0.000000 0.000000 0.000000 0.005079 1.027976 2.875044 0.640108 -13.556869 1.691971 -2.432834 -0.903596 -3.093698 -56.339270 -1.337680 -34.807279 12.015952 -61.898897 14.948306 0.000000 0.000000 0.000000 1.250902 1.107684 3.562371 4.633548 3.691833 8.588363 1.484360 2.292005 -3.630579 -1.181304 -11.082103 65.288617 15.339604 32.287192 -3.432175 0.000000 0.000000 0.000000 
1.291687 113.244469 -1.690937 0.000000 0.000000 0.000000 5.399371 -28.552434 2.133273 -17.297852 16.720824 11.054344 19.536796 12.926889 -1.465284 -1.585642 -4.419834 -4.846568 0.040273 0.136243 -0.078493 0.000000 0.000000 0.000000 8.447037 -27.651097 2.661928 -5.884801 3.650728 -9.598681 11.364029 11.463842 1.982544 -8.504759 -3.561648 4.739747 2.411435 0.607053 0.071195 0.000000 0.000000 0.000000 4.245008 -30.703155 -0.352264 7.350114 1.431096 -1.727502 0.214681 0.655570 2.685959 1.427167 3.191520 -0.415285 0.000000 0.000000 0.000000 1.161632 0.370151 3.954853 -1.991117 23.442635 -9.507137 -2.558245 11.446202 5.670868 0.000000 0.000000 0.000000 -0.091853 0.859973 2.832520 0.408481 -12.556943 1.365767 -0.914883 -2.006572 -2.556122 -56.942126 -1.609688 -35.312368 12.937288 -62.531420 15.191842 0.000000 0.000000 0.000000 1.033926 0.749196 3.421091 4.303434 3.523715 7.829185 1.171723 1.504322 -2.729207 -1.499911 -10.215348 66.191370 14.540764 30.426235 -2.753451 0.000000 0.000000 0.000000 
1.671215 113.076477 -2.307594 0.000000 0.000000 0.000000 5.574762 -28.138913 2.807080 -17.250929 16.256975 11.262693 18.751077 12.555713 -1.595500 -1.753116 -4.061759 -4.315727 0.502859 0.066675 -0.227164 0.000000 0.000000 0.000000 7.974187 -26.461556 2.959183 -7.486476 2.554745 -10.788889 12.478324 11.672693 1.915676 -7.876728 -3.237583 4.581352 2.553492 0.546737 0.146160 0.000000 0.000000 0.000000 4.361877 -31.021787 0.283154 7.735162 1.129256 -0.760661 0.208941 0.351795 2.098376 0.745364 3.911252 -0.302165 0.000000 0.000000 0.000000 1.615689 0.043452 3.299323 -2.210243 22.715411 -9.933427 -4.157453 12.488495 4.469724 0.000000 0.000000 0.000000 -0.032110 0.714725 2.347180 0.135915 -11.120756 0.522436 0.447063 -3.030095 -1.484108 -56.664182 -1.425474 -35.560427 11.245624 -63.274927 12.958141 0.000000 0.000000 0.000000 0.840420 0.364550 2.780830 3.903951 3.588092 5.866457 0.529874 0.824184 -1.686186 -1.264974 -10.180012 68.518702 12.996893 28.039969 -1.475323 0.000000 0.000000 0.000000 
2.298252 112.907852 -2.775208 0.000000 0.000000 0.000000 5.786373 -28.134929 3.476334 -17.631604 15.819352 11.645153 18.015599 12.312092 -1.784741 -2.192842 -3.442858 -3.889370 0.619728 -0.025394 -0.383102 0.000000 0.000000 0.000000 7.524129 -25.746108 3.343511 -9.923697 1.588122 -12.176659 14.335186 12.125416 1.838250 -6.994018 -2.740142 4.797646 1.428440 0.431821 0.241997 0.000000 0.000000 0.000000 4.840588 -31.579871 1.101160 8.481261 0.838761 0.643461 0.257539 0.059257 1.128694 0.897674 4.151331 0.221275 0.000000 0.000000 0.000000 2.020609 -0.218209 2.221781 -2.822140 21.486018 -10.912013 -6.347631 13.676845 2.995936 0.000000 0.000000 0.000000 0.208893 0.583219 1.483881 -0.133099 -9.577651 -0.647405 1.611316 -3.662486 -0.357563 -55.747632 -0.378454 -34.814126 6.583337 -63.897608 8.030904 0.000000 0.000000 0.000000 0.718129 0.044282 1.730052 3.581110 3.684075 2.880761 -0.051854 0.183467 -0.740787 -0.021740 -11.164869 72.046195 11.089937 26.704354 0.000137 0.000000 0.000000 0.000000 
3.298638 112.667175 -3.077038 0.000000 0.000000 0.000000 5.962104 -28.840586 4.050867 -18.488164 14.957809 11.951464 18.244431 11.818452 -2.051819 -2.897030 -3.107268 -4.052885 0.405106 -0.136903 -0.464991 0.000000 0.000000 0.000000 7.166326 -26.399093 3.813879 -13.030877 0.904636 -13.315800 16.528276 12.617379 1.780262 -6.207208 -2.110030 4.818203 0.543169 0.260658 0.397180 0.000000 0.000000 0.000000 5.682798 -32.770414 2.138665 9.645077 0.620685 2.165169 0.310242 -0.148244 -0.053893 1.057682 3.980763 0.577225 0.000000 0.000000 0.000000 2.297537 -0.338066 0.939184 -3.544431 19.653992 -12.198980 -8.825322 14.632642 1.469912 0.000000 0.000000 0.000000 0.555165 0.496621 0.404229 -0.345943 -8.410531 -1.582932 2.730605 -3.804847 0.563547 -54.698829 1.696272 -32.761108 -0.741989 -64.370230 0.644840 0.000000 0.000000 0.000000 0.632939 -0.153960 0.459536 3.398623 3.747337 -0.855413 -0.258483 -0.626858 0.148261 2.849794 -12.611877 76.231468 9.197013 27.195715 1.329715 0.000000 0.000000 0.000000 
4.746736 112.171249 -3.019966 0.000000 0.000000 0.000000 6.145010 -30.659148 4.494888 -19.930234 13.203108 11.908308 20.056408 10.965642 -2.389168 -4.221448 -3.374560 -4.758530 0.203349 -0.284327 -0.430959 0.000000 0.000000 0.000000 6.955733 -29.045711 4.376085 -16.794081 0.652670 -13.872639 19.061830 13.165838 1.713371 -5.330429 -1.206050 4.829324 0.432017 0.054141 0.581637 0.000000 0.000000 0.000000 6.860862 -35.138769 3.339589 11.290286 0.521095 3.471372 0.320498 -0.190491 -1.168849 0.548157 3.715601 0.819208 0.000000 0.000000 0.000000 2.419522 -0.311381 -0.290007 -4.114255 17.049559 -13.443640 -11.324193 14.742333 0.174775 0.000000 0.000000 0.000000 0.910665 0.464874 -0.618854 -0.458613 -7.761310 -1.866006 3.743755 -3.585783 1.181999 -54.605996 4.460770 -29.746515 -10.005894 -65.049561 -8.634597 0.000000 0.000000 0.000000 0.554598 -0.229925 -0.735979 3.376092 3.816628 -4.898390 -0.255673 -1.523247 0.803855 7.426092 -13.518198 80.311379 7.679113 29.618699 2.241550 0.000000 0.000000 0.000000 
6.685472 111.382797 -2.774361 0.000000 0.000000 0.000000 6.397036 -33.665917 4.791653 -21.845585 10.299810 11.405502 23.260370 9.814770 -2.651578 -6.571481 -4.202168 -5.759271 0.168765 -0.450923 -0.276940 0.000000 0.000000 0.000000 7.149520 -33.697578 5.045716 -20.985394 1.038445 -13.573214 21.642556 14.035365 1.525004 -4.015738 0.246670 5.632992 0.213881 -0.155927 0.639881 0.000000 0.000000 0.000000 8.286218 -38.741601 4.651263 13.418208 0.554080 4.329416 0.242427 -0.055812 -1.901326 -0.191563 3.479842 0.671612 0.000000 0.000000 0.000000 2.356429 -0.127688 -1.190405 -4.332079 13.597961 -14.239985 -13.746759 13.494152 -0.749998 0.000000 0.000000 0.000000 1.136193 0.512493 -1.278931 -0.476326 -7.669753 -1.338215 4.620891 -2.807348 1.414499 -56.130116 7.100232 -26.579808 -20.918979 -66.198412 -19.664028 0.000000 0.000000 0.000000 0.476105 -0.164190 -1.544510 3.516010 4.126940 -8.712139 -0.332869 -2.418526 1.232252 12.892546 -13.043004 83.171357 6.981700 32.923964 2.315476 0.000000 0.000000 0.000000 
8.963380 110.314384 -2.505699 0.000000 0.000000 0.000000 6.808053 -38.028974 4.990745 -23.921843 6.354135 10.442822 27.270802 8.565454 -2.725407 -9.652519 -5.206086 -6.950491 0.211390 -0.588539 -0.076866 0.000000 0.000000 0.000000 7.805772 -39.813104 5.698434 -25.187615 2.016282 -12.191293 23.710711 15.297471 1.127327 -2.260320 2.411775 7.659582 -0.767547 -0.347394 0.471084 0.000000 0.000000 0.000000 9.900289 -43.458632 5.917675 15.967787 0.703644 4.576532 0.018506 0.195161 -2.022842 -0.446197 3.061000 0.143236 0.000000 0.000000 0.000000 2.112132 0.167694 -1.491786 -4.103005 9.176085 -14.146813 -15.942650 10.524048 -1.280025 0.000000 0.000000 0.000000 1.173357 0.642198 -1.342544 -0.347677 -8.155011 0.084575 5.569612 -1.699156 1.416204 -59.416888 8.775117 -24.093480 -32.949068 -67.616127 -32.131501 0.000000 0.000000 0.000000 0.387423 0.026598 -1.700663 3.765458 4.869475 -11.771820 -0.874841 -2.737567 1.505382 18.069021 -10.701237 83.671689 7.550041 35.565987 1.079366 0.000000 0.000000 0.000000 
11.581158 109.075783 -2.253628 0.000000 0.000000 0.000000 7.556660 -43.854719 5.177868 -26.195275 1.882573 9.362559 31.490307 7.650192 -2.632698 -12.524822 -5.960324 -8.067979 0.239682 -0.668206 0.043260 0.000000 0.000000 0.000000 8.840032 -46.723596 6.209737 -28.998087 3.282436 -9.805090 24.772266 16.715490 0.549048 -0.317602 5.107010 10.476638 -2.137384 -0.455708 0.171142 0.000000 0.000000 0.000000 11.627502 -49.038293 7.019776 18.751931 0.883843 4.218735 -0.314039 0.503304 -1.426705 -0.188127 2.570479 0.036261 0.000000 0.000000 0.000000 1.704655 0.495927 -1.065911 -3.418654 3.980219 -12.866346 -17.703000 5.838081 -1.382875 0.000000 0.000000 0.000000 0.983946 0.806427 -0.732366 -0.059705 -9.127509 2.137201 6.496495 -0.581427 1.338460 -63.924929 9.356394 -22.729034 -44.756983 -68.867199 -44.695310 0.000000 0.000000 0.000000 0.327879 0.291411 -1.122570 4.090278 6.100519 -13.645944 -1.728963 -2.069079 1.414111 21.728348 -6.932265 81.465463 9.486019 36.404058 -1.537938 0.000000 0.000000 0.000000 
14.366769 107.852478 -2.116875 0.000000 0.000000 0.000000 8.485890 -50.756543 5.327416 -28.623351 -2.188848 8.677553 35.658563 7.387844 -2.491632 -14.385818 -6.190742 -8.749967 0.311563 -0.689759 -0.033117 0.000000 0.000000 0.000000 10.229471 -53.947245 6.684261 -32.243592 4.339404 -6.738368 24.818973 17.716029 -0.065523 1.395645 7.651125 13.094558 -3.240731 -0.459612 -0.042466 0.000000 0.000000 0.000000 13.303706 -55.139588 7.915774 21.547731 0.996083 3.418685 -0.671166 0.782475 -0.209394 0.404208 2.452359 0.292286 0.000000 0.000000 0.000000 1.166754 0.800936 0.012168 -2.292719 -1.674910 -10.340997 -19.023392 -0.225112 -1.186117 0.000000 0.000000 0.000000 0.587304 0.947130 0.435087 0.403051 -10.616254 4.530575 7.005150 0.423655 1.197070 -68.582674 9.180517 -22.612306 -54.116968 -69.754318 -55.032368 0.000000 0.000000 0.000000 0.203164 0.581865 0.075243 4.492682 7.819075 -14.329243 -2.754519 -1.003452 0.904129 23.218675 -2.474868 76.800587 12.302002 35.041527 -4.995218 0.000000 0.000000 0.000000 
